<?xml version="1.0" encoding="UTF-8" standalone="no"?>
<svg
   xmlns:dc="http://purl.org/dc/elements/1.1/"
   xmlns:cc="http://creativecommons.org/ns#"
   xmlns:rdf="http://www.w3.org/1999/02/22-rdf-syntax-ns#"
   xmlns:svg="http://www.w3.org/2000/svg"
   xmlns="http://www.w3.org/2000/svg"
   xml:space="preserve"
   enable-background="new 0 0 171.6 94.5"
   viewBox="0 0 171.6 94.5"
   y="0px"
   x="0px"
   id="Layer_1"
   version="1.1"><metadata
     id="metadata33"><rdf:RDF><cc:Work
         rdf:about=""><dc:format>image/svg+xml</dc:format><dc:type
           rdf:resource="http://purl.org/dc/dcmitype/StillImage" /><dc:title></dc:title></cc:Work></rdf:RDF></metadata><defs
     id="defs31" /><g
     style="fill:#1481e3;fill-opacity:1"
     id="g3"><g
       style="fill:#1481e3;fill-opacity:1"
       id="g5"><path
         style="fill:#1481e3;fill-opacity:1"
         id="path7"
         d="M10.3,90.6c30.8-19.8,65.7-5.5,83.1,4C69.3,85,34,82.8,10.3,90.6    z"
         fill="#FFFFFF"
         clip-rule="evenodd"
         fill-rule="evenodd" /><path
         style="fill:#1481e3;fill-opacity:1"
         id="path9"
         d="M64.3,0c14.8,0,27.5,8.7,33.2,21.2H86    c-5.1-6.3-13-10.3-21.8-10.3c-8.7,0-16.4,3.9-21.5,10c0.3-0.2,0.6-0.4,0.8-0.6c12.1-8.6,28.2,0.9,28.2,0.9S56.4,16.7,46.1,24    c-10.4,7.3-8.7,21.8-8.7,21.8s-0.1-0.2-0.2-0.5c0,0.2,0.1,0.3,0.1,0.5c-2.5-1.8-5.5-3-8.8-3.3c-0.4-2.1-0.6-4.3-0.6-6.5    C28,16.1,44.3,0,64.3,0L64.3,0z M17.8,82.2v-3.1c9.6-7.1,27.3-16.3,48.6-9.7c32.4,10.1,52.9,23.9,77.9,17.7    c25-6.2,27.2-19.9,27.2-19.9s-4.4,19.3-29,23.5c-24.6,4.2-47.3-0.5-76.2-11.3C46.9,72.2,28,77.9,17.8,82.2L17.8,82.2z M17.8,75.9    c1.8-1.2,3.6-2.3,5.3-3.2c-0.8-0.5-1.6-1.1-2.3-1.8c-1.3-1.3-2.3-2.7-3-4.1v6.7l0.2,0.2c0.3,0.3,0.7,0.6,1,0.9    c-0.4-0.2-0.8-0.4-1.2-0.6V75.9L17.8,75.9z M17.8,44.8V33.4c2.4-0.8,4.9-1.3,7.5-1.4c-0.1,1.3-0.2,2.6-0.2,4    c0,2.3,0.2,4.5,0.6,6.6C22.8,42.7,20.1,43.5,17.8,44.8z M17.8,33.4v11.4c-5.1,2.9-8.5,8.3-8.5,14.6c0,6.2,3.4,11.6,8.5,14.6v2    c-2,1.4-4,2.9-5.7,4.1C4.8,75.4,0,67.3,0,58.1C0,46.6,7.4,36.9,17.8,33.4L17.8,33.4z M17.8,66.8c-3.2-6.3-2.1-13.4-2.1-13.4    S10.2,66,17.8,73.5V66.8L17.8,66.8z M17.8,79.1c-5,3.7-7.8,6.8-7.8,6.8c0,0.1,2.9-1.6,7.8-3.7V79.1z"
         fill="#FFFFFF"
         clip-rule="evenodd"
         fill-rule="evenodd" /><path
         style="fill:#1481e3;fill-opacity:1"
         id="path11"
         d="M99.2,74.2c0,0,15.4,7.9,30,6.6c14.5-1.3,18.9-6.4,18.9-6.4    s-5.3,9.8-19.3,10.4C114.8,85.3,99.2,74.5,99.2,74.2z"
         fill="#FFFFFF"
         clip-rule="evenodd"
         fill-rule="evenodd" /><rect
         style="fill:#1481e3;fill-opacity:1"
         id="rect13"
         height="13"
         width="13"
         fill="#FFFFFF"
         clip-rule="evenodd"
         fill-rule="evenodd"
         y="24.2"
         x="87.3" /><rect
         style="fill:#1481e3;fill-opacity:1"
         id="rect15"
         height="10"
         width="10"
         fill="#FFFFFF"
         clip-rule="evenodd"
         fill-rule="evenodd"
         y="60.2"
         x="138.9" /><rect
         style="fill:#1481e3;fill-opacity:1"
         id="rect17"
         height="17.3"
         width="17.3"
         fill="#FFFFFF"
         clip-rule="evenodd"
         fill-rule="evenodd"
         y="12.3"
         x="103" /><rect
         style="fill:#1481e3;fill-opacity:1"
         id="rect19"
         height="17.3"
         width="17.3"
         fill="#FFFFFF"
         clip-rule="evenodd"
         fill-rule="evenodd"
         y="42.3"
         x="153.2" /><rect
         style="fill:#1481e3;fill-opacity:1"
         id="rect21"
         height="9.6"
         width="9.6"
         fill="#FFFFFF"
         clip-rule="evenodd"
         fill-rule="evenodd"
         y="31"
         x="122" /><rect
         style="fill:#1481e3;fill-opacity:1"
         id="rect23"
         height="9.6"
         width="9.6"
         fill="#FFFFFF"
         clip-rule="evenodd"
         fill-rule="evenodd"
         y="50"
         x="128.4" /><rect
         style="fill:#1481e3;fill-opacity:1"
         id="rect25"
         height="9.6"
         width="9.7"
         fill="#FFFFFF"
         clip-rule="evenodd"
         fill-rule="evenodd"
         y="50.9"
         x="108.1" /><rect
         style="fill:#1481e3;fill-opacity:1"
         id="rect27"
         height="9.6"
         width="9.6"
         fill="#FFFFFF"
         clip-rule="evenodd"
         fill-rule="evenodd"
         y="31.3"
         x="141.9" /></g></g></svg>