<?xml version="1.0" encoding="UTF-8" standalone="no"?>
<svg xmlns:rdf="http://www.w3.org/1999/02/22-rdf-syntax-ns#" xmlns="http://www.w3.org/2000/svg" height="100" width="100" version="1.1" xmlns:cc="http://creativecommons.org/ns#" xmlns:dc="http://purl.org/dc/elements/1.1/" viewBox="0 0 100 100">
<g transform="translate(0 -1152.4)">
<g transform="translate(-41.571 393.79)">
<circle d="m 141.571,808.57001 a 50,50 0 0 1 -50.000001,50 50,50 0 0 1 -50,-50 50,50 0 0 1 50,-50 50,50 0 0 1 50.000001,50 z" cy="808.57" cx="91.571" r="50" fill="#3b5998"/>
<g transform="matrix(1.9473 0 0 1.9473 21.298 723.94)" fill="#fff">
<path d="m41.059 71.172h-8.1806v-19.802h-4.0882v-6.8235h4.0882v-4.0969c0-5.5668 2.3074-8.877 8.8646-8.877h5.4595v6.8249h-3.4124c-2.553 0-2.7211 0.95345-2.7211 2.7334l-0.01004 3.4156h6.1819l-0.72331 6.8235h-5.4586z" fill="#fff"/>
</g>
</g>
</g>
</svg>
