<?xml version="1.0" encoding="UTF-8" standalone="no"?>
<svg xmlns:rdf="http://www.w3.org/1999/02/22-rdf-syntax-ns#" xmlns="http://www.w3.org/2000/svg" height="1710.4" viewBox="0 0 1061.2031 1710.4074" width="1061.2" version="1.1" xmlns:cc="http://creativecommons.org/ns#" xmlns:dc="http://purl.org/dc/elements/1.1/">
<g transform="translate(133.46 248.56)">
<path fill="#330707" d="m387.11 1449.6c-20.449-34.618-55.45-57.637-149.69-98.452-92.339-39.989-153.91-79.404-214.4-137.26-86.045-82.288-129.37-164.23-143.62-271.6-2.4962-18.814-5.7356-145.33-7.1984-281.15l-2.6602-246.94h529.1 529.1l-2.4777 84.451c-1.3631 46.448-3.5819 148.91-4.9307 227.7-1.3489 78.786-4.1506 164.41-6.2259 190.28-9.9793 124.4-54.05 216.16-145.99 304-59.981 57.301-120.9 95.01-224.67 139.07-73.243 31.1-106.48 52.186-127.6 80.959-8.5445 11.64-16.881 21.163-18.525 21.163-1.6443 0-6.2397-5.5011-10.211-12.225zm80.539-80.411c13.928-7.3529 50.922-24.246 82.207-37.541 89.449-38.011 150.84-77.736 212.84-137.72 69.753-67.488 113.24-151.88 125.43-243.4 4.3772-32.863 13.096-322.16 13.168-436.92l0.048-56.675-503.5 1.0866-503.5 1.0866 1.317 205.25c0.72455 112.89 3.2911 227.24 5.7033 254.11 9.517 106.02 45.372 183.39 120.67 260.39 64.546 66.003 130.43 110.93 215.55 146.98 73.603 31.177 114.68 53.688 139.34 76.363l21.896 20.134 21.758-19.885c11.967-10.937 33.154-25.902 47.082-33.254zm42.474-146.75c-1.4292-2.3118-1.3484-10.864 0.1804-19.005 2.3148-12.34 0.9265-16.652-8.3448-25.923-12.451-12.451-14.541-26.793-4.468-30.658 3.6593-1.4043 15.685 2.1889 26.725 7.9849 11.039 5.7959 23.249 9.7871 27.132 8.8692 12.981-3.0685 22.504-39.332 16.263-61.936-7.1305-25.824-13.606-27.801-38.582-11.774-30.594 19.632-55.526 20.086-72.301 1.3146-11.551-12.926-21.479-44.351-21.479-67.991 0-9.1459-1.9237-10.48-15.117-10.48-28.64 0-49.021 23.672-55.224 64.14-1.622 10.583-4.8371 25.341-7.1448 32.796-4.5853 14.814-38.21 48.449-48.434 48.449-3.5101 0-10.769 7.682-16.13 17.071-9.623 16.85-24.811 23.084-31.171 12.793-1.7009-2.7515-7.197-1.6786-14.994 2.9269-20.042 11.84-37.327 0.5325-34.584-22.623 0.3136-2.639-4.982-5.9082-11.766-7.2649-6.987-1.3975-13.225-5.8746-14.39-10.327-2.8018-10.714 3.6431-26.784 10.742-26.784 3.1885 0 7.5799-7.2158 9.7588-16.035 7.2792-29.466 33.39-21.231 38.738 12.218 4.9042 30.668 25.742 31.87 40.8 2.3522 4.9146-9.633 12.734-22.653 17.378-28.934l8.4428-11.42-11.146-19.02c-17.256-29.444-13.509-56.502 10.897-78.701 23.798-21.646 55.054-29.013 90.203-21.259 15.818 3.4893 16.035 3.359 16.035-9.6001 0-18.007-11.174-27.013-47.957-38.652-17.132-5.4212-37.534-13.999-45.339-19.062-15.879-10.302-30.709-35.316-30.709-51.796 0-5.9732-1.0168-10.86-2.2601-10.86-1.2429 0-13.47 5.6587-27.17 12.575-17.788 8.9795-26.46 16.315-30.329 25.656-5.1388 12.405-16.084 17.049-23.273 9.8743-1.7679-1.7638-10.266-3.207-18.886-3.207-15.053 0-15.629-0.5487-14.587-13.897 0.9655-12.36-0.1329-13.897-9.9184-13.897-8.9535 0-10.749-1.7851-9.6372-9.5809 0.75971-5.3258 6.4459-12.008 12.803-15.045 7.1438-3.4129 12.488-10.251 14.238-18.217 4.2095-19.166 21.839-22.259 34.729-6.0929l9.7498 12.227 15.196-7.2464c18.087-8.6252 32.204-29.939 32.226-48.656 0-10.233-4.6442-18.3-19.219-33.296-10.579-10.885-23.128-27.422-27.886-36.748-5.6506-11.076-14.18-19.554-24.594-24.447-10.315-4.8459-16.426-10.881-17.31-17.095-0.7516-5.2824-3.913-9.6044-7.0255-9.6044-8.5463 0-11.977-13.534-5.1583-20.353 4.0247-4.0245 5.3374-11.942 3.9786-23.996-2.7257-24.185 5.1246-31.278 26.187-23.662 12.132 4.387 16.152 4.3393 21.69-0.25799 10.148-8.4218 12.902-2.178 6.9975 15.866-4.7607 14.548-4.1986 18.265 5.9807 39.574 15.414 32.267 47.143 77.662 58.812 84.143 13.464 7.4785 35.988 6.9098 57.91-1.4622 14.254-5.4436 18.158-8.9229 16.62-14.809-3.0047-11.489 8.4988-19.513 18.774-13.096 11.319 7.069 15.817 6.3911 20.925-3.1545 10.598-19.803-8.8998-33.937-31.771-23.03-14.026 6.6886-15.826 6.7215-22.143 0.40479-14.134-14.134 5.6696-54.653 26.712-54.653 3.1277 0 7.8627-4.065 10.521-9.0333 4.1995-7.8467 7.1681-8.6312 22.6-5.9723 9.7707 1.6836 25.011 3.7726 33.867 4.6425 32.722 3.2138 34.62 6.2422 31.588 50.388-1.4767 21.495-6.6626 57.362-11.524 79.704-15.257 70.121-15.384 72.683-3.5895 72.751 20.345 0.117 29.938 4.8954 28.581 14.238-0.8813 6.0701-5.4961 9.7595-14.495 11.588-19.382 3.9392-23.145 7.4346-23.145 21.5 0 8.742 5.1265 18.277 16.532 30.749 19.766 21.614 28.293 37.467 35.252 65.537 9.7693 39.406 38.429 50.834 59.775 23.836 11.338-14.34 9.4823-35.034-8.887-99.08-21.022-73.296-17.464-95.34 27.228-168.66 24.922-40.887 20.345-79.462-9.4077-79.292-18.514 0.10589-23.127 5.312-19.908 22.468 3.9093 20.838-7.4212 57.677-23.162 75.308-6.9766 7.8145-14.51 13.08-16.742 11.701-2.2307-1.3788-3.1125-10.877-1.9594-21.108 1.4092-12.502-0.2328-23.109-5.0138-32.351-9.2614-17.909-6.1061-26.355 16.881-45.191 23.218-19.025 40.631-25.466 59.352-21.954 34.188 6.4137 40.928 45.284 15.634 90.168-49.607 88.03-50.824 94.627-30.034 162.86 14.813 48.617 19.874 88.516 13.349 105.24-5.8396 14.965-22.922 25.927-44.991 28.873l-17.619 2.3518 0.071 19.198c0.09 24.158 7.2246 26.331 36.383 11.084 24.915-13.028 38.696-13.945 48.402-3.2201 8.8006 9.7243 9.0296 28.33 0.6419 52.104-3.5396 10.031-6.2586 30.959-6.043 46.505 0.2139 15.546 0.081 32.114-0.2945 36.818-0.3801 4.7036-0.067 12.319 0.6975 16.922 0.9297 5.6109-2.3585 10.206-9.9751 13.94-6.2491 3.0634-15.351 12.331-20.227 20.595-10.333 17.513-19.385 22.199-28.41 14.709-5.2238-4.3353-7.9011-4.0219-14.179 1.6597-8.6608 7.8379-20.185 9.1758-24.125 2.8008zm-639.3-888.47c0-6.9788 3.5301-14.428 8.552-18.048 8.3563-6.0228 8.552-11.069 8.552-220.41v-214.25l-10.868-10.21c-6.2563-5.8772-10.339-13.905-9.621-18.918 1.183-8.2653 4.5658-8.7687 66.456-9.889l65.209-1.1804v10.056c0 5.5308-4.8105 14.575-10.69 20.099-10.649 10.004-10.69 10.347-10.69 88.404v78.361h175.32 175.32v-78.361c0-78.056-0.047-78.4-10.69-88.404-5.8795-5.5235-10.69-14.518-10.69-19.987 0-9.8673 0.4086-9.9447 52.349-9.9447h52.349l102.69 102.63 102.69 102.63 102.56-102.63 102.56-102.63h52.415c52.011 0 52.414 0.0764 52.414 9.9447 0 5.4695-4.8105 14.464-10.69 19.987l-10.69 10.043v210.17 210.17l10.69 10.043c5.8795 5.5235 10.69 14.518 10.69 19.987v9.9447h-64.14c-59.248 0-64.14-0.59546-64.14-7.8067 0-4.2936 4.8105-12.326 10.69-17.849l10.69-10.043v-166.02c0-91.311-1.5256-166.02-3.39-166.02-1.8643 0-47.39 44.416-101.17 98.702l-97.778 98.702-99.805-99.737-99.805-99.737v167.05 167.05l10.69 10.043c5.8795 5.5235 10.69 14.568 10.69 20.099v10.056l-65.209-1.1804c-61.89-1.1203-65.273-1.6237-66.456-9.889-0.7179-5.013 3.3647-13.041 9.621-18.918l10.868-10.21v-97.651-97.651l-174.25 1.117-174.25 1.117-1.1474 96.461-1.1469 96.461 10.768 10.116c5.9228 5.564 10.768 14.591 10.768 20.061v9.9447h-64.14-64.14v-11.884zm99.017-15.198c-9.1953-9.7883-9.3517-11.99-8.228-115.91l1.145-105.93 191.35-0.61228 191.35-0.61222v108.7c0 95.15-0.8794 109.68-7.0739 116.52-6.8093 7.5243-5.517 7.8197 34.208 7.8197 40.786 0 47.397-2.4321 34.871-12.828-5.5137-4.5758-6.414-30.331-6.414-183.45v-178.12l-27.794-27.547-27.794-27.547v77.914 77.914h-192.42-192.42v-89.273c0-74.137 1.0875-90.175 6.414-94.596 12.498-10.372 5.9494-12.828-34.208-12.828-40.158 0-46.706 2.4557-34.208 12.828 5.5479 4.6045 6.414 34.794 6.414 223.61 0 197.12-0.68607 219.04-7.0768 226.11-6.8122 7.5277-5.4272 7.8197 37.092 7.8197h44.168l-9.374-9.9778zm927.23-2.8502c-8.3131-8.3131-8.552-14.253-8.552-212.6v-204.05l-25.656 25.388-25.656 25.388v179.39c0 160.92-0.7283 180.19-7.0768 187.21-6.8093 7.5243-5.517 7.8197 34.208 7.8197 41.285 0 41.285 0 32.733-8.552zm-134.92-313.22 139.48-142.18l-35.45-1.2203-35.45-1.2203-105.75 105.98-105.75 105.98-105.91-105.83-105.91-105.83h-38.429-38.429l143.2 143.25c78.75 78.787 144.48 143.25 146.06 143.25 1.5792 0 65.635-63.98 142.35-142.18zm-892.76-211.31c-1.5679-1.5679-2.8507-11.189-2.8507-21.38v-18.529h530.23 530.23v21.38 21.38h-527.38c-290.06 0-528.66-1.2828-530.23-2.8507z"/>
</g>
</svg>
