<?xml version="1.0" encoding="UTF-8" standalone="no"?>
<svg xmlns:rdf="http://www.w3.org/1999/02/22-rdf-syntax-ns#" xmlns="http://www.w3.org/2000/svg" height="100" viewBox="0 0 100 100" width="100" version="1.1" xmlns:cc="http://creativecommons.org/ns#" xmlns:dc="http://purl.org/dc/elements/1.1/">
<g transform="translate(0 -952.36)">
<circle cx="50" cy="1002.4" r="50" fill="#2aa9e0"/>
<path d="m75 986.86c-1.8395 0.8159-3.8168 1.3672-5.8915 1.6152 2.1178-1.2695 3.7445-3.2797 4.5103-5.6752-1.9823 1.1756-4.1775 2.0291-6.5143 2.4892-1.871-1.9938-4.537-3.2393-7.4875-3.2393-5.665 0-10.258 4.5928-10.258 10.258 0 0.80408 0.09081 1.5871 0.26575 2.3378-8.5255-0.42765-16.084-4.5116-21.144-10.718-0.883 1.515-1.389 3.277-1.389 5.1569 0 3.559 1.811 6.6987 4.5635 8.5383-1.6815-0.0532-3.2632-0.51471-4.6462-1.2831-0.0012 0.0434-0.0012 0.0867-0.0012 0.12804 0 4.97 3.536 9.1158 8.2288 10.059-0.86076 0.2347-1.767 0.3597-2.7025 0.3597-0.66101 0-1.3035-0.065-1.93-0.1831 1.3055 4.0752 5.0938 7.0412 9.5828 7.1238-3.5108 2.7514-7.9337 4.3913-12.74 4.3913-0.828 0-1.6445-0.049-2.447-0.1438 4.5398 2.9108 9.9318 4.6089 15.725 4.6089 18.868 0 29.187-15.631 29.187-29.187 0-0.44478-0.0099-0.88699-0.02974-1.3272 2.004-1.446 3.743-3.2525 5.1183-5.3098z" fill="#fff"/>
</g>
</svg>
